<?xml version="1.0" encoding="UTF-8" standalone="no"?>
<svg width="60px" height="16px" viewBox="0 0 60 16" version="1.1" xmlns="http://www.w3.org/2000/svg" xmlns:xlink="http://www.w3.org/1999/xlink">
    <!-- Generator: Sketch 39 (31667) - http://www.bohemiancoding.com/sketch -->
    <title>Shape</title>
    <desc>Created with Sketch.</desc>
    <defs></defs>
    <g id="Page-1" stroke="none" stroke-width="1" fill="none" fill-rule="evenodd">
        <g id="next-arrow" fill="#FFFFFF">
            <path d="M52.616,0 L50.511,2.105 L54.917,6.511 L19.543,6.511 L14.024,0.992 L11.919,3.097 L15.333,6.511 L13.584,6.511 L8.064,0.992 L5.959,3.098 L9.373,6.512 L7.624,6.512 L2.105,0.992 L0,3.098 L4.902,8 L0,12.902 L2.105,15.007 L7.624,9.488 L9.373,9.488 L5.959,12.902 L8.064,15.007 L13.583,9.488 L15.332,9.488 L11.918,12.902 L14.023,15.007 L19.542,9.488 L54.916,9.488 L50.51,13.894 L52.616,16 L59.563,9.053 C60.145,8.471 60.145,7.529 59.564,6.947 L52.616,0 Z" id="Shape"></path>
        </g>
    </g>
</svg>